<?xml version="1.0" standalone="no"?>
<!DOCTYPE svg PUBLIC "-//W3C//DTD SVG 20010904//EN"
 "http://www.w3.org/TR/2001/REC-SVG-20010904/DTD/svg10.dtd">
<svg version="1.0" xmlns="http://www.w3.org/2000/svg"
 width="500.000000pt" height="500.000000pt" viewBox="0 0 500.000000 500.000000"
 preserveAspectRatio="xMidYMid meet">

<g transform="translate(0.000000,500.000000) scale(0.100000,-0.100000)"
fill="#000000" stroke="none">
<path d="M2320 4245 c-128 -21 -231 -54 -345 -109 -322 -155 -558 -444 -652
-798 -24 -92 -27 -120 -27 -268 0 -149 3 -175 27 -263 31 -113 100 -300 147
-402 188 -404 365 -727 628 -1145 314 -497 327 -515 402 -515 75 0 90 20 402
515 356 565 623 1084 738 1432 71 213 86 371 55 551 -43 246 -149 458 -319
636 -108 112 -218 193 -351 257 -225 108 -479 147 -705 109z m395 -320 c343
-90 599 -357 669 -697 20 -96 21 -262 2 -360 -39 -204 -170 -416 -330 -537
-87 -66 -226 -134 -331 -162 -114 -32 -335 -32 -450 0 -321 87 -562 328 -652
651 -23 85 -29 309 -10 402 72 347 336 622 672 701 39 9 81 18 95 21 50 9 276
-4 335 -19z"/>
<path d="M2464 3707 c-22 -12 -630 -555 -704 -628 -48 -48 -53 -87 -15 -124
28 -29 60 -32 96 -7 25 16 130 109 254 222 48 45 264 238 382 343 22 20 22 20
57 -9 55 -46 279 -247 445 -399 171 -156 196 -175 229 -175 34 0 72 43 72 81
0 37 23 14 -404 398 -317 285 -348 310 -376 310 -8 0 -25 -5 -36 -12z"/>
<path d="M2414 3327 c-114 -102 -281 -252 -337 -304 l-47 -45 2 -216 3 -217
465 0 465 0 3 217 c2 170 0 219 -11 230 -34 33 -449 403 -455 405 -4 1 -43
-30 -88 -70z"/>
</g>
</svg>
